{"scene":0,"asset":{"generator":"ImageToStl.com","version":"2.0"},"scenes":[{"name":"Scene","nodes":[0]}],"nodes":[{"name":"Node0","children":[1,2,3,4,5,6,7,8,9,10,11,12,13]},{"name":"Node1","mesh":0},{"name":"Node2","mesh":1},{"name":"Node3","mesh":2},{"name":"Node4","mesh":3},{"name":"Node5","mesh":4},{"name":"Node6","mesh":5},{"name":"Node7","mesh":6},{"name":"Node8","mesh":7},{"name":"Node9","mesh":8},{"name":"Node10","mesh":9},{"name":"Node11","mesh":10},{"name":"Node12","mesh":11},{"name":"Node13","mesh":12}],"materials":[{"name":"Material.009","pbrMetallicRoughness":{"baseColorFactor":[0.8,0.8,0.8,1.0],"metallicFactor":0.5,"roughnessFactor":0.75},"emissiveFactor":[0.0,0.0,0.0],"doubleSided":true},{"name":"Material.010","pbrMetallicRoughness":{"baseColorFactor":[0.8,0.8,0.8,1.0],"metallicFactor":0.5,"roughnessFactor":0.75},"emissiveFactor":[0.0,0.0,0.0],"doubleSided":true},{"name":"Material.011","pbrMetallicRoughness":{"baseColorFactor":[0.8,0.8,0.8,1.0],"metallicFactor":0.5,"roughnessFactor":0.75},"emissiveFactor":[0.0,0.0,0.0],"doubleSided":true},{"name":"Material.008","pbrMetallicRoughness":{"baseColorFactor":[0.8,0.8,0.8,1.0],"metallicFactor":0.5,"roughnessFactor":0.75},"emissiveFactor":[0.0,0.0,0.0],"doubleSided":true},{"name":"Material.005","pbrMetallicRoughness":{"baseColorFactor":[0.8,0.8,0.8,1.0],"metallicFactor":0.5,"roughnessFactor":0.75},"emissiveFactor":[0.0,0.0,0.0],"doubleSided":true},{"name":"Material.006","pbrMetallicRoughness":{"baseColorFactor":[0.8,0.8,0.8,1.0],"metallicFactor":0.5,"roughnessFactor":0.75},"emissiveFactor":[0.0,0.0,0.0],"doubleSided":true},{"name":"Material.007","pbrMetallicRoughness":{"baseColorFactor":[0.8,0.8,0.8,1.0],"metallicFactor":0.5,"roughnessFactor":0.75},"emissiveFactor":[0.0,0.0,0.0],"doubleSided":true},{"name":"Material.004","pbrMetallicRoughness":{"baseColorFactor":[0.8,0.8,0.8,1.0],"metallicFactor":0.5,"roughnessFactor":0.75},"emissiveFactor":[0.0,0.0,0.0],"doubleSided":true},{"name":"Material","pbrMetallicRoughness":{"baseColorFactor":[0.8,0.8,0.8,1.0],"metallicFactor":0.5,"roughnessFactor":0.75},"emissiveFactor":[0.0,0.0,0.0],"doubleSided":true},{"name":"Material.001","pbrMetallicRoughness":{"baseColorFactor":[0.8,0.8,0.8,1.0],"metallicFactor":0.5,"roughnessFactor":0.75},"emissiveFactor":[0.0,0.0,0.0],"doubleSided":true},{"name":"Material.002","pbrMetallicRoughness":{"baseColorFactor":[0.8,0.8,0.8,1.0],"metallicFactor":0.5,"roughnessFactor":0.75},"emissiveFactor":[0.0,0.0,0.0],"doubleSided":true},{"name":"Material.003","pbrMetallicRoughness":{"baseColorFactor":[0.8,0.8,0.8,1.0],"metallicFactor":0.5,"roughnessFactor":0.75},"emissiveFactor":[0.0,0.0,0.0],"doubleSided":true}],"meshes":[{"name":"Mesh0","primitives":[{"indices":2,"material":0,"attributes":{"POSITION":0,"NORMAL":1}},{"indices":3,"material":1,"attributes":{"POSITION":0,"NORMAL":1}},{"indices":4,"material":2,"attributes":{"POSITION":0,"NORMAL":1}}]},{"name":"Mesh0","primitives":[{"indices":7,"material":3,"attributes":{"POSITION":5,"NORMAL":6}}]},{"name":"Mesh0","primitives":[{"indices":10,"material":4,"attributes":{"POSITION":8,"NORMAL":9}}]},{"name":"Mesh0","primitives":[{"indices":13,"material":4,"attributes":{"POSITION":11,"NORMAL":12}}]},{"name":"Mesh0","primitives":[{"indices":16,"material":4,"attributes":{"POSITION":14,"NORMAL":15}}]},{"name":"Mesh0","primitives":[{"indices":19,"material":4,"attributes":{"POSITION":17,"NORMAL":18}}]},{"name":"Mesh0","primitives":[{"indices":22,"material":4,"attributes":{"POSITION":20,"NORMAL":21}}]},{"name":"Mesh0","primitives":[{"indices":25,"material":4,"attributes":{"POSITION":23,"NORMAL":24}}]},{"name":"Mesh0","primitives":[{"indices":28,"material":5,"attributes":{"POSITION":26,"NORMAL":27}},{"indices":29,"material":6,"attributes":{"POSITION":26,"NORMAL":27}}]},{"name":"Mesh0","primitives":[{"indices":32,"material":7,"attributes":{"POSITION":30,"NORMAL":31}}]},{"name":"Mesh0","primitives":[{"indices":35,"material":7,"attributes":{"POSITION":33,"NORMAL":34}}]},{"name":"Mesh0","primitives":[{"indices":38,"material":7,"attributes":{"POSITION":36,"NORMAL":37}}]},{"name":"Mesh0","primitives":[{"indices":41,"material":8,"attributes":{"POSITION":39,"NORMAL":40}},{"indices":42,"material":9,"attributes":{"POSITION":39,"NORMAL":40}},{"indices":43,"material":10,"attributes":{"POSITION":39,"NORMAL":40}},{"indices":44,"material":11,"attributes":{"POSITION":39,"NORMAL":40}}]}],"accessors":[{"bufferView":0,"componentType":5126,"count":24,"type":"VEC3","min":[-8.961035,-8.961035,0.0],"max":[8.961035,8.961035,0.0]},{"bufferView":1,"componentType":5126,"count":24,"type":"VEC3"},{"bufferView":2,"componentType":5123,"count":78,"type":"SCALAR"},{"bufferView":3,"componentType":5123,"count":6,"type":"SCALAR"},{"bufferView":4,"componentType":5123,"count":6,"type":"SCALAR"},{"bufferView":5,"componentType":5126,"count":336,"type":"VEC3","min":[-0.7807656,-0.6947303,0.5617274],"max":[0.76420414,0.70375353,0.6195674]},{"bufferView":6,"componentType":5126,"count":336,"type":"VEC3"},{"bufferView":7,"componentType":5123,"count":1512,"type":"SCALAR"},{"bufferView":8,"componentType":5126,"count":8,"type":"VEC3","min":[0.2739398,-0.9477786,0.042563483],"max":[0.6431805,-0.943045,0.49630493]},{"bufferView":9,"componentType":5126,"count":8,"type":"VEC3"},{"bufferView":10,"componentType":5123,"count":36,"type":"SCALAR"},{"bufferView":11,"componentType":5126,"count":8,"type":"VEC3","min":[-0.6308218,-0.9477786,0.042563483],"max":[-0.26158112,-0.943045,0.49630493]},{"bufferView":12,"componentType":5126,"count":8,"type":"VEC3"},{"bufferView":13,"componentType":5123,"count":36,"type":"SCALAR"},{"bufferView":14,"componentType":5126,"count":8,"type":"VEC3","min":[-0.6308218,0.95296407,0.042563483],"max":[-0.26158112,0.95769763,0.49630493]},{"bufferView":15,"componentType":5126,"count":8,"type":"VEC3"},{"bufferView":16,"componentType":5123,"count":36,"type":"SCALAR"},{"bufferView":17,"componentType":5126,"count":8,"type":"VEC3","min":[0.2739398,0.95296407,0.042563483],"max":[0.6431805,0.95769763,0.49630493]},{"bufferView":18,"componentType":5126,"count":8,"type":"VEC3"},{"bufferView":19,"componentType":5123,"count":36,"type":"SCALAR"},{"bufferView":20,"componentType":5126,"count":8,"type":"VEC3","min":[0.9491305,0.34930837,0.042563483],"max":[0.95386404,0.71854913,0.49630493]},{"bufferView":21,"componentType":5126,"count":8,"type":"VEC3"},{"bufferView":22,"componentType":5123,"count":36,"type":"SCALAR"},{"bufferView":23,"componentType":5126,"count":8,"type":"VEC3","min":[0.9491305,-0.76330996,0.042563483],"max":[0.95386404,-0.3940692,0.49630493]},{"bufferView":24,"componentType":5126,"count":8,"type":"VEC3"},{"bufferView":25,"componentType":5123,"count":36,"type":"SCALAR"},{"bufferView":26,"componentType":5126,"count":40,"type":"VEC3","min":[0.93908507,-0.32030788,0.025379434],"max":[0.94377846,0.3323377,0.50091416]},{"bufferView":27,"componentType":5126,"count":40,"type":"VEC3"},{"bufferView":28,"componentType":5123,"count":204,"type":"SCALAR"},{"bufferView":29,"componentType":5123,"count":24,"type":"SCALAR"},{"bufferView":30,"componentType":5126,"count":446,"type":"VEC3","min":[-1.0852435,-1.0,0.0025119353],"max":[1.2184293,1.0,0.62997115]},{"bufferView":31,"componentType":5126,"count":446,"type":"VEC3"},{"bufferView":32,"componentType":5123,"count":2664,"type":"SCALAR"},{"bufferView":33,"componentType":5126,"count":8,"type":"VEC3","min":[-1.0852435,-1.0,0.611335],"max":[1.2184293,1.0,0.66587585]},{"bufferView":34,"componentType":5126,"count":8,"type":"VEC3"},{"bufferView":35,"componentType":5123,"count":36,"type":"SCALAR"},{"bufferView":36,"componentType":5126,"count":8,"type":"VEC3","min":[-1.0852435,-1.0,3.5823383],"max":[1.2184293,1.0,3.636879]},{"bufferView":37,"componentType":5126,"count":8,"type":"VEC3"},{"bufferView":38,"componentType":5123,"count":36,"type":"SCALAR"},{"bufferView":39,"componentType":5126,"count":29520,"type":"VEC3","min":[-1.0,-0.926833,0.6469595],"max":[1.0,0.926833,3.5924435]},{"bufferView":40,"componentType":5126,"count":29520,"type":"VEC3"},{"bufferView":41,"componentType":5123,"count":131868,"type":"SCALAR"},{"bufferView":42,"componentType":5123,"count":9720,"type":"SCALAR"},{"bufferView":43,"componentType":5123,"count":7776,"type":"SCALAR"},{"bufferView":44,"componentType":5123,"count":19440,"type":"SCALAR"}],"bufferViews":[{"target":34962,"buffer":0,"byteLength":288,"byteOffset":0},{"target":34962,"buffer":0,"byteLength":288,"byteOffset":288},{"target":34963,"buffer":0,"byteLength":156,"byteOffset":576},{"target":34963,"buffer":0,"byteLength":12,"byteOffset":732},{"target":34963,"buffer":0,"byteLength":12,"byteOffset":744},{"target":34962,"buffer":0,"byteLength":4032,"byteOffset":756},{"target":34962,"buffer":0,"byteLength":4032,"byteOffset":4788},{"target":34963,"buffer":0,"byteLength":3024,"byteOffset":8820},{"target":34962,"buffer":0,"byteLength":96,"byteOffset":11844},{"target":34962,"buffer":0,"byteLength":96,"byteOffset":11940},{"target":34963,"buffer":0,"byteLength":72,"byteOffset":12036},{"target":34962,"buffer":0,"byteLength":96,"byteOffset":12108},{"target":34962,"buffer":0,"byteLength":96,"byteOffset":12204},{"target":34963,"buffer":0,"byteLength":72,"byteOffset":12300},{"target":34962,"buffer":0,"byteLength":96,"byteOffset":12372},{"target":34962,"buffer":0,"byteLength":96,"byteOffset":12468},{"target":34963,"buffer":0,"byteLength":72,"byteOffset":12564},{"target":34962,"buffer":0,"byteLength":96,"byteOffset":12636},{"target":34962,"buffer":0,"byteLength":96,"byteOffset":12732},{"target":34963,"buffer":0,"byteLength":72,"byteOffset":12828},{"target":34962,"buffer":0,"byteLength":96,"byteOffset":12900},{"target":34962,"buffer":0,"byteLength":96,"byteOffset":12996},{"target":34963,"buffer":0,"byteLength":72,"byteOffset":13092},{"target":34962,"buffer":0,"byteLength":96,"byteOffset":13164},{"target":34962,"buffer":0,"byteLength":96,"byteOffset":13260},{"target":34963,"buffer":0,"byteLength":72,"byteOffset":13356},{"target":34962,"buffer":0,"byteLength":480,"byteOffset":13428},{"target":34962,"buffer":0,"byteLength":480,"byteOffset":13908},{"target":34963,"buffer":0,"byteLength":408,"byteOffset":14388},{"target":34963,"buffer":0,"byteLength":48,"byteOffset":14796},{"target":34962,"buffer":0,"byteLength":5352,"byteOffset":14844},{"target":34962,"buffer":0,"byteLength":5352,"byteOffset":20196},{"target":34963,"buffer":0,"byteLength":5328,"byteOffset":25548},{"target":34962,"buffer":0,"byteLength":96,"byteOffset":30876},{"target":34962,"buffer":0,"byteLength":96,"byteOffset":30972},{"target":34963,"buffer":0,"byteLength":72,"byteOffset":31068},{"target":34962,"buffer":0,"byteLength":96,"byteOffset":31140},{"target":34962,"buffer":0,"byteLength":96,"byteOffset":31236},{"target":34963,"buffer":0,"byteLength":72,"byteOffset":31332},{"target":34962,"buffer":0,"byteLength":354240,"byteOffset":31404},{"target":34962,"buffer":0,"byteLength":354240,"byteOffset":385644},{"target":34963,"buffer":0,"byteLength":263736,"byteOffset":739884},{"target":34963,"buffer":0,"byteLength":19440,"byteOffset":1003620},{"target":34963,"buffer":0,"byteLength":15552,"byteOffset":1023060},{"target":34963,"buffer":0,"byteLength":38880,"byteOffset":1038612}],"buffers":[{"byteLength":1077492,"uri":"data:application/octet-stream;base64,"}]}